<svg width="380" height="191" viewBox="0 0 380 191" fill="none" xmlns="http://www.w3.org/2000/svg">
<g clip-path="url(#clip0_108_1117)">
<path d="M0 142.802V47.6005L82.3346 0L164.665 47.6005V142.802L82.3346 190.402L0 142.802ZM41.097 71.5265V119.192L82.3346 143.03L123.576 119.192V71.5265L82.3384 47.6881L41.097 71.5265ZM363.424 143.019V81.3283H379.498V143.019H363.424ZM335.639 143.019H320.37V120.742H278.046V109.595L317.68 49.733H335.627V108.377H349.98V120.726H335.643V143.003L335.639 143.019ZM314.359 76.5759L298.422 100.605L297.187 102.44C295.886 104.573 294.369 106.566 292.661 108.388H320.401V77.7869L320.667 64.9005H320.534C319.028 69.0655 316.944 72.9973 314.344 76.5797L314.359 76.5759ZM205.857 143.019V130.403C216.975 122.164 227.534 113.196 237.466 103.556C247.726 93.5483 251.526 86.2026 251.526 76.4426C251.526 66.8083 246.35 61.2752 237.329 61.2752C235.365 61.1106 233.388 61.3818 231.54 62.0694C229.692 62.757 228.018 63.8443 226.637 65.2537C225.256 66.6632 224.202 68.3604 223.549 70.2244C222.897 72.0885 222.662 74.0738 222.862 76.039C222.876 77.8892 223.024 79.736 223.307 81.5644H207.233C206.829 79.5695 206.637 77.5375 206.659 75.502C206.523 71.7334 207.199 67.9796 208.642 64.4966C210.084 61.0136 212.26 57.8834 215.019 55.3194C221.428 50.0345 229.566 47.3207 237.857 47.7033C242.225 47.6423 246.574 48.276 250.743 49.5807C254.288 50.7025 257.548 52.5796 260.3 55.0833C262.937 57.5485 264.968 60.5919 266.236 63.9751C267.645 67.8389 268.336 71.9292 268.272 76.0428C268.281 82.0629 266.778 87.9885 263.902 93.2742C260.264 99.6763 255.637 105.46 250.192 110.41C242.959 117.313 235.163 123.599 226.887 129.203H269.61V143.026H205.857V143.019ZM362.596 67.8326V47.9813H380V67.8212L362.596 67.8326Z" fill="#FB0046"/>
</g>
<defs>
<clipPath id="clip0_108_1117">
<rect width="380" height="190.402" fill="white"/>
</clipPath>
</defs>
</svg>
