<svg width="927" height="218" viewBox="0 0 927 218" fill="none" xmlns="http://www.w3.org/2000/svg">
<g clip-path="url(#clip0_108_1090)">
<path d="M640.797 6.62971V211.37H671.519V6.62971H640.797ZM312.574 3.13228C252.724 3.13201 206.286 46.6701 206.286 109C206.286 174.137 252.724 214.869 312.574 214.868C372.424 214.867 418.957 174.137 418.862 109C418.775 49.9448 372.424 3.13255 312.574 3.13228ZM388.195 109C388.195 155.143 354.339 185.722 312.574 185.722C270.809 185.722 236.953 155.143 236.953 109C236.953 63.6941 270.809 32.2784 312.574 32.2784C354.339 32.2784 388.195 63.6941 388.195 109ZM0 1.84756e-05V211.37H31.354V71.6844L194.287 218V174.177L0 1.84756e-05ZM441.968 109L555.987 211.371H601.705L487.514 109L601.705 6.6296H555.987L441.968 109ZM927 211.37H893.203L868.49 166.031H756.552L731.834 211.37H698.036L738.966 135.801H852.415L795.846 30.781L812.521 0L927 211.37Z" fill="#005AFF"/>
</g>
<defs>
<clipPath id="clip0_108_1090">
<rect width="927" height="218" fill="white"/>
</clipPath>
</defs>
</svg>
